<?xml version="1.0" encoding="UTF-8"?><svg id="Ebene_2" xmlns="http://www.w3.org/2000/svg" viewBox="0 0 194.018 194.018"><defs><style>.cls-1{fill:#fff;stroke:#000;stroke-miterlimit:10;stroke-width:4px;}</style></defs><g id="Ebene_1-2"><polygon class="cls-1" points="97.009 2.528 67.121 25.623 97.009 97.009 126.897 25.623 97.009 2.528"/><polygon class="cls-1" points="163.817 30.201 126.352 25.397 97.009 97.009 168.621 67.666 163.817 30.201"/><polygon class="cls-1" points="191.49 97.009 168.395 67.121 97.009 97.009 168.395 126.897 191.49 97.009"/><polygon class="cls-1" points="163.817 163.817 168.621 126.352 97.009 97.009 126.352 168.621 163.817 163.817"/><polygon class="cls-1" points="97.009 191.491 126.897 168.395 97.009 97.009 67.121 168.395 97.009 191.491"/><polygon class="cls-1" points="30.201 163.818 67.666 168.621 97.009 97.009 25.397 126.352 30.201 163.818"/><polygon class="cls-1" points="2.528 97.009 25.623 126.897 97.009 97.009 25.623 67.121 2.528 97.009"/><polygon class="cls-1" points="30.2 30.201 25.397 67.666 97.009 97.009 67.666 25.397 30.2 30.201"/></g></svg>